<?xml version="1.0" encoding="utf-8"?>
<!-- Generator: Adobe Illustrator 24.0.1, SVG Export Plug-In . SVG Version: 6.00 Build 0)  -->
<svg version="1.1" id="Layer_1" xmlns="http://www.w3.org/2000/svg" xmlns:xlink="http://www.w3.org/1999/xlink" x="0px" y="0px"
	 viewBox="0 0 264.8 97.7" style="enable-background:new 0 0 264.8 97.7;" xml:space="preserve">
<style type="text/css">
	.st0{display:none;}
	.st1{fill:#FFFFFF;}
	.st2{fill:none;stroke:#252726;stroke-width:3.0958;stroke-miterlimit:10;}
	.st3{fill:none;}
	.st4{fill:none;stroke:#FFFFFF;stroke-width:2.5799;stroke-miterlimit:10;}
	.st5{fill:#252726;}
	.st6{fill:none;stroke:#252726;stroke-width:2.5799;stroke-miterlimit:10;}
	.st7{fill:none;stroke:#252726;stroke-width:13.005;stroke-miterlimit:10;}
	.st8{fill:none;stroke:#252726;stroke-width:10.8375;stroke-miterlimit:10;}
	.st9{fill:none;stroke:#FFFFFF;stroke-width:10.8375;stroke-miterlimit:10;}
</style>
<g>
	<path class="st1" d="M105.3,67.7h-1.4c-1.2,0-2.1-0.6-2.9-1.7c-0.7-1.1-1.1-2.5-1.1-4.3V28.6c0-0.5-0.2-0.9-0.5-1.2
		c-0.3-0.3-0.7-0.5-1.2-0.5c-0.5,0-0.9,0.2-1.2,0.5c-0.3,0.3-0.5,0.7-0.5,1.2v33.2c0,1.9,0.3,3.5,0.9,4.9c0.6,1.4,1.5,2.5,2.6,3.3
		c1.1,0.8,2.4,1.2,3.8,1.2h1.1c0.5,0,0.9-0.2,1.2-0.5c0.3-0.3,0.5-0.7,0.5-1.2c0-0.5-0.1-0.9-0.4-1.2
		C106,67.9,105.7,67.7,105.3,67.7z"/>
	<path class="st1" d="M131.4,41.8c-2.2-1.3-4.6-2-7.4-2c-2.8,0-5.3,0.7-7.5,2c-2.2,1.4-3.9,3.2-5.2,5.6c-1.2,2.4-1.9,5.1-1.9,8.2
		c0,3.1,0.7,5.8,2,8.2c1.3,2.4,3.1,4.2,5.5,5.6c2.3,1.3,5,2,8,2c1.8,0,3.6-0.4,5.6-1.1c1.9-0.7,3.5-1.6,4.7-2.7
		c0.4-0.3,0.6-0.7,0.5-1.1c0-0.4-0.2-0.8-0.7-1.1c-0.3-0.3-0.7-0.4-1.1-0.4c-0.4,0-0.8,0.2-1.1,0.5c-0.9,0.8-2,1.5-3.5,2
		c-1.5,0.5-3,0.8-4.4,0.8c-2.3,0-4.4-0.5-6.2-1.6s-3.2-2.6-4.2-4.4c-0.9-1.6-1.4-3.5-1.5-5.5h23.7c0.5,0,0.9-0.1,1.2-0.4
		c0.3-0.3,0.5-0.7,0.5-1.2c0-3-0.6-5.6-1.8-7.9C135.3,44.9,133.6,43.1,131.4,41.8z M114.3,49.1c1-1.9,2.3-3.4,4-4.4
		c1.7-1.1,3.6-1.6,5.8-1.6c2.3,0,4.2,0.5,5.9,1.6c1.7,1.1,3,2.6,3.9,4.4c0.7,1.4,1.1,2.9,1.2,4.6H113
		C113.2,52,113.6,50.5,114.3,49.1z"/>
	<path class="st1" d="M167.7,41.9c-2.4-1.4-5.1-2-8.2-2c-3,0-5.7,0.7-8.1,2c-2.4,1.4-4.3,3.2-5.7,5.6c-1.4,2.4-2.1,5.1-2.1,8.2
		c0,3.1,0.7,5.8,2,8.2c1.4,2.4,3.2,4.2,5.6,5.6c2.4,1.4,5.1,2,8.2,2c2.7,0,5.1-0.6,7.2-1.7c2.1-1.2,3.7-2.7,4.9-4.8
		c0.1-0.2,0.2-0.5,0.3-0.7v2.5c0,2.5-0.5,4.7-1.6,6.7c-1.1,2-2.5,3.5-4.3,4.7c-1.8,1.1-3.9,1.7-6.3,1.7c-2.5,0-4.6-0.5-6.4-1.4
		c-1.8-0.9-3.3-2.1-4.5-3.5c-0.3-0.4-0.7-0.7-1.2-0.7c-0.5-0.1-1,0-1.3,0.3c-0.4,0.3-0.6,0.6-0.6,1c0,0.4,0.2,0.8,0.5,1.2
		c1.4,1.8,3.3,3.3,5.5,4.5c2.2,1.2,4.9,1.8,8,1.8c3,0,5.6-0.7,8-2.1c2.3-1.4,4.2-3.4,5.6-5.8c1.4-2.5,2-5.2,2-8.3V55.7
		c0-3.1-0.7-5.8-2-8.2C171.9,45.1,170,43.2,167.7,41.9z M170.3,62.2c-1.1,1.9-2.5,3.4-4.4,4.5c-1.9,1.1-4,1.6-6.4,1.6
		c-2.4,0-4.6-0.5-6.5-1.6s-3.4-2.6-4.4-4.5c-1.1-1.9-1.6-4.1-1.6-6.5c0-2.5,0.5-4.7,1.6-6.6c1.1-1.9,2.5-3.4,4.4-4.5
		c1.9-1.1,4-1.6,6.5-1.6c2.4,0,4.6,0.5,6.4,1.6c1.9,1.1,3.3,2.6,4.4,4.5c1.1,1.9,1.6,4.1,1.6,6.6C171.9,58.1,171.3,60.3,170.3,62.2z
		"/>
	<path class="st1" d="M205.7,41.9c-2.4-1.4-5.1-2.1-8.1-2.1c-3,0-5.7,0.7-8.1,2.1c-2.4,1.4-4.3,3.3-5.7,5.7
		c-1.4,2.4-2.1,5.1-2.1,8.1c0,3,0.7,5.7,2.1,8.1c1.4,2.4,3.3,4.3,5.7,5.7c2.4,1.4,5.1,2.1,8.1,2.1c2.8,0,5.2-0.6,7.4-1.8
		c2.1-1.2,3.8-2.7,5-4.7v4.5c0,0.5,0.2,0.9,0.5,1.2c0.3,0.3,0.7,0.5,1.2,0.5c0.5,0,0.9-0.2,1.2-0.5c0.3-0.3,0.5-0.7,0.5-1.2V55.7
		c0-3-0.7-5.7-2.1-8.1C209.9,45.2,208.1,43.3,205.7,41.9z M203.9,66.6c-1.9,1.1-4,1.7-6.4,1.7c-2.3,0-4.5-0.6-6.3-1.7
		c-1.9-1.1-3.4-2.6-4.5-4.5c-1.1-1.9-1.6-4.1-1.6-6.4c0-2.4,0.5-4.6,1.6-6.5c1.1-1.9,2.6-3.4,4.5-4.5c1.9-1.1,4-1.7,6.3-1.7
		c2.4,0,4.5,0.6,6.4,1.7c1.9,1.1,3.3,2.6,4.4,4.5c1.1,1.9,1.6,4.1,1.6,6.5c0,2.4-0.5,4.5-1.6,6.4C207.3,64,205.8,65.5,203.9,66.6z"
		/>
	<path class="st1" d="M239.5,55.8c-1.6-0.9-3.9-1.5-6.7-1.9c-2.1-0.3-3.7-0.7-5-1.2s-2.1-1.1-2.7-1.9c-0.5-0.7-0.8-1.6-0.8-2.6
		c0-1.4,0.7-2.7,2-3.7c1.3-1,3.2-1.5,5.6-1.5c1.8,0,3.3,0.3,4.7,0.9c1.3,0.6,2.5,1.5,3.4,2.7c0.3,0.4,0.7,0.6,1.1,0.7
		c0.4,0.1,0.8,0,1.2-0.2c0.5-0.3,0.8-0.6,0.9-1c0.1-0.4,0-0.8-0.3-1.2c-1.1-1.5-2.5-2.8-4.3-3.7c-1.8-0.9-3.9-1.4-6.5-1.4
		c-2.1,0-4,0.3-5.6,1c-1.6,0.7-2.9,1.6-3.9,2.9s-1.4,2.9-1.4,4.8c0,2,0.9,3.8,2.7,5.3c1.8,1.5,4.6,2.5,8.4,3.1
		c2.9,0.4,5.1,1.1,6.5,2.1c1.4,1,2.1,2.2,2.1,3.7c0,1.5-0.7,2.8-2,4c-1.3,1.1-3.6,1.7-6.7,1.7c-1.9,0-3.6-0.3-5.1-0.8
		c-1.6-0.5-2.9-1.4-4-2.7c-0.3-0.3-0.6-0.5-1-0.6c-0.4-0.1-0.8,0-1.2,0.3c-0.4,0.3-0.7,0.7-0.7,1.1c-0.1,0.4,0.1,0.8,0.4,1.2
		c1.4,1.7,3.2,2.9,5.4,3.6c2.2,0.7,4.2,1.1,6.2,1.1c2.2,0,4.2-0.3,6-1c1.8-0.7,3.3-1.7,4.5-3c1.1-1.3,1.7-2.9,1.7-4.6
		c0-1.4-0.3-2.6-1-3.8C242.3,57.7,241.1,56.7,239.5,55.8z"/>
	<path class="st1" d="M255.4,29c-0.5-0.4-1.1-0.7-1.8-0.7c-0.7,0-1.3,0.2-1.8,0.7c-0.5,0.4-0.8,1.1-0.8,2c0,0.8,0.3,1.4,0.8,1.9
		s1.1,0.8,1.8,0.8c0.8,0,1.4-0.3,1.9-0.8c0.5-0.5,0.8-1.1,0.8-1.9C256.2,30.1,256,29.5,255.4,29z"/>
	<path class="st1" d="M253.6,40.2c-0.5,0-0.9,0.2-1.2,0.5c-0.3,0.3-0.5,0.7-0.5,1.2v27.6c0,0.5,0.2,0.9,0.5,1.2
		c0.3,0.3,0.7,0.5,1.2,0.5c0.5,0,0.9-0.2,1.2-0.5c0.3-0.3,0.5-0.7,0.5-1.2V41.9c0-0.5-0.2-0.9-0.5-1.2
		C254.6,40.3,254.2,40.2,253.6,40.2z"/>
</g>
<g>
	<g>
		<g>
			<path class="st1" d="M80.4,26.1L52.1,11c-1.8-0.9-3.8-0.9-5.6,0L18.2,26.1c-1.9,1-3.1,3-3.1,5.2v35.5c0,2.2,1.2,4.2,3.1,5.2
				l28.3,15.2c0.9,0.5,1.8,0.7,2.8,0.7c1,0,1.9-0.2,2.8-0.7L80.4,72c1.9-1,3.1-3,3.1-5.2V31.4C83.5,29.2,82.3,27.2,80.4,26.1z
				 M48,85c-0.1,0-0.2-0.1-0.3-0.1l-3.5-1.9c0.7-0.8,1.4-2.2,1.4-4.3V68.3c0-0.5,0.1-2.9-1.7-5.9l0,0c0,0,0,0-0.1-0.1
				c-0.3-0.6-0.7-1.2-1.2-1.8c-2.9-3.7-3.1-5.3-3.1-6.9c0-2.1-0.4-4.1-4-6.1c0-0.1,0-0.3,0-0.4c0-1.8-1.4-3.2-3.2-3.2
				c-1.8,0-3.2,1.4-3.2,3.2c0,1.8,1.4,3.2,3.2,3.2c0.7,0,1.3-0.2,1.8-0.6c2.8,1.5,2.8,2.7,2.8,3.9c0,1.3,0.2,2.6,0.8,4
				c-0.6-0.2-1.2-0.3-1.9-0.4c-2.2-0.2-2.7-1-3.3-2c-0.4-0.6-0.8-1.3-1.5-1.8c-0.7-0.4-1.7-0.9-2.5-1.3c0-0.1,0-0.1,0-0.2
				c0-1.8-1.4-3.2-3.2-3.2c-1.8,0-3.2,1.4-3.2,3.2s1.4,3.2,3.2,3.2c0.8,0,1.5-0.3,2-0.7c0.8,0.4,1.6,0.8,2.3,1.2
				c0.2,0.1,0.4,0.4,0.6,0.9c0.7,1.2,1.7,2.9,5.3,3.2c3.3,0.3,5.7,3.5,6.1,4c1.4,2.5,1.3,4.3,1.3,4.4l0,10.6c0,2-0.8,2.7-1.3,3
				l-22.4-12c-1.1-0.6-1.8-1.7-1.8-3V31.4c0-0.1,0-0.2,0-0.3l28,14.2c0,0,0,0,0,0l0.2,0.1c1.3,0.7,2.1,2,2.1,3.5V85z M46.9,42.9
				l-28-14.2c0.2-0.1,0.3-0.3,0.5-0.4l28.3-15.2c0.5-0.3,1-0.4,1.6-0.4c0.5,0,1.1,0.1,1.6,0.4l28.3,15.2c0.2,0.1,0.4,0.2,0.5,0.4
				l-28,14.2C50.2,43.7,48.4,43.7,46.9,42.9z M80.9,66.8c0,1.2-0.7,2.4-1.8,3l-22.4,12c-0.4-0.3-1.3-1.1-1.3-3V68.3l0-0.1
				c0-0.1-0.1-1.9,1.3-4.4c0.4-0.5,2.8-3.7,6.1-4c3.6-0.3,4.6-2.1,5.3-3.2c0.2-0.4,0.4-0.7,0.6-0.9c0.7-0.4,1.6-0.9,2.3-1.2
				c0.6,0.5,1.3,0.7,2,0.7c1.8,0,3.2-1.4,3.2-3.2s-1.4-3.2-3.2-3.2c-1.8,0-3.2,1.4-3.2,3.2c0,0.1,0,0.1,0,0.2
				c-0.8,0.4-1.7,0.9-2.5,1.3c-0.8,0.5-1.2,1.2-1.5,1.8c-0.6,1-1.1,1.8-3.3,2c-0.7,0.1-1.3,0.2-1.9,0.4c0.6-1.5,0.8-2.7,0.8-4
				c0-1.3,0-2.5,2.8-3.9c0.5,0.4,1.2,0.6,1.8,0.6c1.8,0,3.2-1.4,3.2-3.2c0-1.8-1.4-3.2-3.2-3.2c-1.8,0-3.2,1.4-3.2,3.2
				c0,0.2,0,0.3,0,0.4c-3.7,2-4,4-4,6.1c0,1.6-0.2,3.3-3.1,6.9c-0.5,0.6-0.9,1.2-1.2,1.8c0,0.1-0.1,0.1-0.1,0.1l0,0
				c-1.7,3-1.7,5.5-1.7,5.9v10.4c0,2.1,0.7,3.5,1.4,4.3l-3.5,1.9C50.8,85,50.7,85,50.6,85l0-36.3c0-1.5,0.8-2.8,2.1-3.5l0.2-0.1
				c0,0,0,0,0,0l28-14.2c0,0.1,0,0.2,0,0.3V66.8z"/>
			<path class="st1" d="M54.6,47.8c-1.8,0-1.7,2.7-1.7,2.7v11.3c0.5-1,1.1-2.1,2-3.2c0.4-0.4,0.6-0.9,0.6-1.5v-8.1
				C55.5,48.5,55.3,47.8,54.6,47.8z"/>
			<path class="st1" d="M43.9,47.8c-0.7,0-0.8,0.7-0.8,1.3v8.1c0,0.5,0.2,1.1,0.6,1.5c0.9,1,1.6,2.1,2,3.2V50.5
				C45.7,50.5,45.7,47.8,43.9,47.8z"/>
		</g>
	</g>
	<path class="st1" d="M51.9,36.4L51.9,36.4c0.3-0.3,0.6-0.6,0.9-1c2.1-2.8,4.6-4,5.8-4.5c0,0,0,0,0.1,0c0.5,0.3,1,0.5,1.7,0.5
		c1.8,0,3.2-1.4,3.2-3.2S62.2,25,60.4,25s-3.2,1.4-3.2,3.2c0,0.3,0,0.5,0.1,0.8c-4.7,2-5.4,4.4-5.9,6.2c-0.2,0.6-0.4,1-0.7,1.2V25
		c1.1-0.5,1.9-1.6,1.9-2.9c0-1.8-1.4-3.2-3.2-3.2s-3.2,1.4-3.2,3.2c0,1.3,0.8,2.4,1.9,2.9v11.3c-0.3-0.2-0.6-0.6-0.7-1.2
		c-0.4-1.8-1.2-4.1-5.9-6.2c0.1-0.2,0.1-0.5,0.1-0.8c0-1.8-1.4-3.2-3.2-3.2c-1.8,0-3.2,1.4-3.2,3.2s1.4,3.2,3.2,3.2
		c0.6,0,1.2-0.2,1.7-0.5c0,0,0,0,0.1,0c1.2,0.6,3.6,1.8,5.8,4.5c0.3,0.4,0.6,0.7,0.9,1l0,0c0,0,1.8,1.8,4.2,0.6
		C51.3,36.9,51.6,36.7,51.9,36.4L51.9,36.4z"/>
</g>
</svg>
